<mxfile host="app.diagrams.net" modified="2024-04-29T13:18:57.631Z" agent="Mozilla/5.0 (Windows NT 10.0; Win64; x64; rv:124.0) Gecko/20100101 Firefox/124.0" etag="wC8stgAKDEQRu_4gOCky" version="24.2.5" type="github">
  <diagram name="Page-1" id="WHO5cMsDMsLjXfPXbsgw">
    <mxGraphModel dx="2663" dy="486" grid="1" gridSize="10" guides="1" tooltips="1" connect="1" arrows="1" fold="1" page="1" pageScale="1" pageWidth="827" pageHeight="1169" math="0" shadow="0">
      <root>
        <mxCell id="0" />
        <mxCell id="1" parent="0" />
        <mxCell id="oglI9BCuFXkfBV5GbW_k-55" value="package" style="shape=folder;fontStyle=1;spacingTop=10;tabWidth=40;tabHeight=14;tabPosition=left;html=1;whiteSpace=wrap;" vertex="1" parent="1">
          <mxGeometry x="-1480" y="70" width="600" height="688" as="geometry" />
        </mxCell>
        <mxCell id="3_qst0NbUyWHlaPV9hMc-36" style="edgeStyle=orthogonalEdgeStyle;rounded=0;orthogonalLoop=1;jettySize=auto;html=1;entryX=0.5;entryY=0;entryDx=0;entryDy=0;" parent="1" source="3_qst0NbUyWHlaPV9hMc-25" target="3_qst0NbUyWHlaPV9hMc-27" edge="1">
          <mxGeometry relative="1" as="geometry" />
        </mxCell>
        <mxCell id="3_qst0NbUyWHlaPV9hMc-25" value="Analyse des demandes de congé : formation" style="ellipse;whiteSpace=wrap;html=1;" parent="1" vertex="1">
          <mxGeometry x="289" width="250" height="80" as="geometry" />
        </mxCell>
        <mxCell id="3_qst0NbUyWHlaPV9hMc-35" style="edgeStyle=orthogonalEdgeStyle;rounded=0;orthogonalLoop=1;jettySize=auto;html=1;entryX=0.5;entryY=0;entryDx=0;entryDy=0;" parent="1" source="3_qst0NbUyWHlaPV9hMc-27" target="3_qst0NbUyWHlaPV9hMc-29" edge="1">
          <mxGeometry relative="1" as="geometry" />
        </mxCell>
        <mxCell id="3_qst0NbUyWHlaPV9hMc-27" value="Demande de congé" style="rounded=0;whiteSpace=wrap;html=1;" parent="1" vertex="1">
          <mxGeometry x="354" y="150" width="120" height="60" as="geometry" />
        </mxCell>
        <mxCell id="3_qst0NbUyWHlaPV9hMc-34" style="edgeStyle=orthogonalEdgeStyle;rounded=0;orthogonalLoop=1;jettySize=auto;html=1;" parent="1" source="3_qst0NbUyWHlaPV9hMc-29" target="3_qst0NbUyWHlaPV9hMc-32" edge="1">
          <mxGeometry relative="1" as="geometry" />
        </mxCell>
        <mxCell id="3_qst0NbUyWHlaPV9hMc-37" value="non" style="edgeLabel;html=1;align=center;verticalAlign=middle;resizable=0;points=[];" parent="3_qst0NbUyWHlaPV9hMc-34" vertex="1" connectable="0">
          <mxGeometry x="-0.9636" relative="1" as="geometry">
            <mxPoint as="offset" />
          </mxGeometry>
        </mxCell>
        <mxCell id="3_qst0NbUyWHlaPV9hMc-39" value="oui" style="edgeStyle=orthogonalEdgeStyle;rounded=0;orthogonalLoop=1;jettySize=auto;html=1;exitX=0.5;exitY=1;exitDx=0;exitDy=0;entryX=0.5;entryY=0;entryDx=0;entryDy=0;" parent="1" source="3_qst0NbUyWHlaPV9hMc-29" target="3_qst0NbUyWHlaPV9hMc-38" edge="1">
          <mxGeometry relative="1" as="geometry" />
        </mxCell>
        <mxCell id="3_qst0NbUyWHlaPV9hMc-29" value="&lt;div&gt;2 ans d&#39;ancienneté&lt;/div&gt;&lt;div&gt;et&lt;/div&gt;&lt;div&gt;6 mois dans la fouche&lt;br&gt;&lt;/div&gt;" style="rhombus;whiteSpace=wrap;html=1;" parent="1" vertex="1">
          <mxGeometry x="320" y="270" width="186" height="140" as="geometry" />
        </mxCell>
        <mxCell id="3_qst0NbUyWHlaPV9hMc-90" style="edgeStyle=orthogonalEdgeStyle;rounded=0;orthogonalLoop=1;jettySize=auto;html=1;exitX=0.5;exitY=1;exitDx=0;exitDy=0;entryX=0;entryY=0.75;entryDx=0;entryDy=0;" parent="1" source="3_qst0NbUyWHlaPV9hMc-32" target="3_qst0NbUyWHlaPV9hMc-79" edge="1">
          <mxGeometry relative="1" as="geometry">
            <Array as="points">
              <mxPoint x="95" y="1410" />
              <mxPoint x="366" y="1410" />
            </Array>
          </mxGeometry>
        </mxCell>
        <mxCell id="3_qst0NbUyWHlaPV9hMc-32" value="Demande refusée" style="rounded=0;whiteSpace=wrap;html=1;" parent="1" vertex="1">
          <mxGeometry x="10" y="1200" width="170" height="90" as="geometry" />
        </mxCell>
        <mxCell id="3_qst0NbUyWHlaPV9hMc-41" value="non" style="edgeStyle=orthogonalEdgeStyle;rounded=0;orthogonalLoop=1;jettySize=auto;html=1;exitX=0;exitY=0.5;exitDx=0;exitDy=0;entryX=0.5;entryY=0;entryDx=0;entryDy=0;" parent="1" source="3_qst0NbUyWHlaPV9hMc-38" target="3_qst0NbUyWHlaPV9hMc-40" edge="1">
          <mxGeometry x="-0.8025" y="-10" relative="1" as="geometry">
            <mxPoint as="offset" />
          </mxGeometry>
        </mxCell>
        <mxCell id="3_qst0NbUyWHlaPV9hMc-45" style="edgeStyle=orthogonalEdgeStyle;rounded=0;orthogonalLoop=1;jettySize=auto;html=1;entryX=1;entryY=0.5;entryDx=0;entryDy=0;exitX=1;exitY=0.5;exitDx=0;exitDy=0;" parent="1" source="3_qst0NbUyWHlaPV9hMc-38" target="3_qst0NbUyWHlaPV9hMc-44" edge="1">
          <mxGeometry relative="1" as="geometry">
            <Array as="points">
              <mxPoint x="517" y="540" />
              <mxPoint x="517" y="850" />
            </Array>
          </mxGeometry>
        </mxCell>
        <mxCell id="3_qst0NbUyWHlaPV9hMc-47" value="oui" style="edgeLabel;html=1;align=center;verticalAlign=middle;resizable=0;points=[];" parent="3_qst0NbUyWHlaPV9hMc-45" vertex="1" connectable="0">
          <mxGeometry x="-0.2007" y="1" relative="1" as="geometry">
            <mxPoint y="-147" as="offset" />
          </mxGeometry>
        </mxCell>
        <mxCell id="3_qst0NbUyWHlaPV9hMc-38" value="&lt;div&gt;Stage &amp;gt; 6 mois&lt;/div&gt;&lt;div&gt;et demande 60 jours avant&lt;br&gt;&lt;/div&gt;" style="rhombus;whiteSpace=wrap;html=1;" parent="1" vertex="1">
          <mxGeometry x="329.5" y="470" width="167" height="140" as="geometry" />
        </mxCell>
        <mxCell id="3_qst0NbUyWHlaPV9hMc-42" style="edgeStyle=orthogonalEdgeStyle;rounded=0;orthogonalLoop=1;jettySize=auto;html=1;" parent="1" source="3_qst0NbUyWHlaPV9hMc-40" edge="1">
          <mxGeometry relative="1" as="geometry">
            <mxPoint x="100" y="730" as="targetPoint" />
            <Array as="points">
              <mxPoint x="146" y="735" />
              <mxPoint x="146" y="730" />
            </Array>
          </mxGeometry>
        </mxCell>
        <mxCell id="3_qst0NbUyWHlaPV9hMc-43" value="non" style="edgeLabel;html=1;align=center;verticalAlign=middle;resizable=0;points=[];" parent="3_qst0NbUyWHlaPV9hMc-42" vertex="1" connectable="0">
          <mxGeometry x="-0.2004" y="3" relative="1" as="geometry">
            <mxPoint x="28" y="-18" as="offset" />
          </mxGeometry>
        </mxCell>
        <mxCell id="3_qst0NbUyWHlaPV9hMc-46" style="edgeStyle=orthogonalEdgeStyle;rounded=0;orthogonalLoop=1;jettySize=auto;html=1;entryX=0.5;entryY=0;entryDx=0;entryDy=0;" parent="1" source="3_qst0NbUyWHlaPV9hMc-40" target="3_qst0NbUyWHlaPV9hMc-44" edge="1">
          <mxGeometry relative="1" as="geometry">
            <Array as="points">
              <mxPoint x="282" y="790" />
              <mxPoint x="414" y="790" />
            </Array>
          </mxGeometry>
        </mxCell>
        <mxCell id="3_qst0NbUyWHlaPV9hMc-48" value="oui" style="edgeLabel;html=1;align=center;verticalAlign=middle;resizable=0;points=[];" parent="3_qst0NbUyWHlaPV9hMc-46" vertex="1" connectable="0">
          <mxGeometry x="0.2201" relative="1" as="geometry">
            <mxPoint x="-82" y="10" as="offset" />
          </mxGeometry>
        </mxCell>
        <mxCell id="3_qst0NbUyWHlaPV9hMc-40" value="&lt;div&gt;Stage &amp;lt;6 mois&amp;nbsp;&lt;/div&gt;&lt;div&gt;et&amp;nbsp;&lt;/div&gt;&lt;div&gt;demande 30 jours avant&lt;/div&gt;" style="rhombus;whiteSpace=wrap;html=1;" parent="1" vertex="1">
          <mxGeometry x="190" y="690" width="184" height="90" as="geometry" />
        </mxCell>
        <mxCell id="3_qst0NbUyWHlaPV9hMc-51" style="edgeStyle=orthogonalEdgeStyle;rounded=0;orthogonalLoop=1;jettySize=auto;html=1;exitX=0;exitY=0.5;exitDx=0;exitDy=0;" parent="1" source="3_qst0NbUyWHlaPV9hMc-44" edge="1">
          <mxGeometry relative="1" as="geometry">
            <mxPoint x="100" y="850" as="targetPoint" />
            <mxPoint x="394" y="890" as="sourcePoint" />
            <Array as="points">
              <mxPoint x="140" y="850" />
            </Array>
          </mxGeometry>
        </mxCell>
        <mxCell id="3_qst0NbUyWHlaPV9hMc-52" value="non" style="edgeLabel;html=1;align=center;verticalAlign=middle;resizable=0;points=[];" parent="3_qst0NbUyWHlaPV9hMc-51" vertex="1" connectable="0">
          <mxGeometry x="-0.0836" y="-1" relative="1" as="geometry">
            <mxPoint x="106" y="-9" as="offset" />
          </mxGeometry>
        </mxCell>
        <mxCell id="3_qst0NbUyWHlaPV9hMc-55" value="oui" style="edgeStyle=orthogonalEdgeStyle;rounded=0;orthogonalLoop=1;jettySize=auto;html=1;" parent="1" source="3_qst0NbUyWHlaPV9hMc-44" target="3_qst0NbUyWHlaPV9hMc-53" edge="1">
          <mxGeometry x="-1" y="16" relative="1" as="geometry">
            <mxPoint as="offset" />
          </mxGeometry>
        </mxCell>
        <mxCell id="3_qst0NbUyWHlaPV9hMc-44" value="Délai de franchise &amp;gt;6 mois" style="rhombus;whiteSpace=wrap;html=1;" parent="1" vertex="1">
          <mxGeometry x="374" y="810" width="80" height="80" as="geometry" />
        </mxCell>
        <mxCell id="3_qst0NbUyWHlaPV9hMc-71" style="edgeStyle=orthogonalEdgeStyle;rounded=0;orthogonalLoop=1;jettySize=auto;html=1;exitX=1;exitY=0;exitDx=0;exitDy=0;entryX=0;entryY=0.25;entryDx=0;entryDy=0;" parent="1" source="3_qst0NbUyWHlaPV9hMc-53" target="3_qst0NbUyWHlaPV9hMc-69" edge="1">
          <mxGeometry relative="1" as="geometry">
            <Array as="points">
              <mxPoint x="449" y="900" />
              <mxPoint x="654" y="900" />
            </Array>
          </mxGeometry>
        </mxCell>
        <mxCell id="3_qst0NbUyWHlaPV9hMc-53" value="&lt;div&gt;Abs nuisible&amp;nbsp;&lt;/div&gt;" style="rhombus;whiteSpace=wrap;html=1;" parent="1" vertex="1">
          <mxGeometry x="344" y="960" width="140" height="90" as="geometry" />
        </mxCell>
        <mxCell id="3_qst0NbUyWHlaPV9hMc-57" value="Demande Accepté" style="rounded=0;whiteSpace=wrap;html=1;" parent="1" vertex="1">
          <mxGeometry x="600" y="1200" width="170" height="90" as="geometry" />
        </mxCell>
        <mxCell id="3_qst0NbUyWHlaPV9hMc-58" value="Demande reportée" style="rounded=0;whiteSpace=wrap;html=1;" parent="1" vertex="1">
          <mxGeometry x="320" y="1200" width="170" height="90" as="geometry" />
        </mxCell>
        <mxCell id="3_qst0NbUyWHlaPV9hMc-59" style="edgeStyle=orthogonalEdgeStyle;rounded=0;orthogonalLoop=1;jettySize=auto;html=1;entryX=0.563;entryY=-0.002;entryDx=0;entryDy=0;entryPerimeter=0;exitX=0.5;exitY=1;exitDx=0;exitDy=0;" parent="1" source="3_qst0NbUyWHlaPV9hMc-53" edge="1">
          <mxGeometry relative="1" as="geometry">
            <mxPoint x="412" y="1080.18" as="sourcePoint" />
            <mxPoint x="413.71000000000004" y="1200" as="targetPoint" />
            <Array as="points">
              <mxPoint x="412" y="1050" />
              <mxPoint x="412" y="1141" />
              <mxPoint x="414" y="1141" />
            </Array>
          </mxGeometry>
        </mxCell>
        <mxCell id="3_qst0NbUyWHlaPV9hMc-61" value="oui" style="edgeLabel;html=1;align=center;verticalAlign=middle;resizable=0;points=[];" parent="3_qst0NbUyWHlaPV9hMc-59" vertex="1" connectable="0">
          <mxGeometry x="-0.2607" y="3" relative="1" as="geometry">
            <mxPoint x="15" y="-35" as="offset" />
          </mxGeometry>
        </mxCell>
        <mxCell id="3_qst0NbUyWHlaPV9hMc-64" style="edgeStyle=orthogonalEdgeStyle;rounded=0;orthogonalLoop=1;jettySize=auto;html=1;exitX=1;exitY=1;exitDx=0;exitDy=0;entryX=0;entryY=0;entryDx=0;entryDy=0;" parent="1" source="3_qst0NbUyWHlaPV9hMc-63" target="3_qst0NbUyWHlaPV9hMc-27" edge="1">
          <mxGeometry relative="1" as="geometry" />
        </mxCell>
        <mxCell id="3_qst0NbUyWHlaPV9hMc-63" value="Dossier salarié" style="shape=parallelogram;perimeter=parallelogramPerimeter;whiteSpace=wrap;html=1;fixedSize=1;" parent="1" vertex="1">
          <mxGeometry x="110" y="60" width="120" height="60" as="geometry" />
        </mxCell>
        <mxCell id="3_qst0NbUyWHlaPV9hMc-65" value="&lt;div&gt;Demande de &lt;br&gt;&lt;/div&gt;&lt;div&gt;formation&lt;br&gt;&lt;/div&gt;" style="shape=parallelogram;perimeter=parallelogramPerimeter;whiteSpace=wrap;html=1;fixedSize=1;" parent="1" vertex="1">
          <mxGeometry x="620" y="60" width="120" height="60" as="geometry" />
        </mxCell>
        <mxCell id="3_qst0NbUyWHlaPV9hMc-66" style="edgeStyle=orthogonalEdgeStyle;rounded=0;orthogonalLoop=1;jettySize=auto;html=1;exitX=0;exitY=0.75;exitDx=0;exitDy=0;entryX=1;entryY=0;entryDx=0;entryDy=0;" parent="1" source="3_qst0NbUyWHlaPV9hMc-65" target="3_qst0NbUyWHlaPV9hMc-27" edge="1">
          <mxGeometry relative="1" as="geometry" />
        </mxCell>
        <mxCell id="3_qst0NbUyWHlaPV9hMc-68" style="edgeStyle=orthogonalEdgeStyle;rounded=0;orthogonalLoop=1;jettySize=auto;html=1;exitX=0;exitY=1;exitDx=0;exitDy=0;entryX=0.666;entryY=0.144;entryDx=0;entryDy=0;entryPerimeter=0;" parent="1" source="3_qst0NbUyWHlaPV9hMc-67" target="3_qst0NbUyWHlaPV9hMc-29" edge="1">
          <mxGeometry relative="1" as="geometry" />
        </mxCell>
        <mxCell id="3_qst0NbUyWHlaPV9hMc-67" value="&lt;div&gt;catalogue&lt;/div&gt;&lt;div&gt;formation&lt;br&gt;&lt;/div&gt;" style="shape=parallelogram;perimeter=parallelogramPerimeter;whiteSpace=wrap;html=1;fixedSize=1;" parent="1" vertex="1">
          <mxGeometry x="530" y="210" width="120" height="60" as="geometry" />
        </mxCell>
        <mxCell id="3_qst0NbUyWHlaPV9hMc-73" style="edgeStyle=orthogonalEdgeStyle;rounded=0;orthogonalLoop=1;jettySize=auto;html=1;exitX=0.25;exitY=1;exitDx=0;exitDy=0;" parent="1" source="3_qst0NbUyWHlaPV9hMc-69" target="3_qst0NbUyWHlaPV9hMc-72" edge="1">
          <mxGeometry relative="1" as="geometry" />
        </mxCell>
        <mxCell id="3_qst0NbUyWHlaPV9hMc-69" value="&lt;div&gt;Dossier des abssences&amp;nbsp;&lt;/div&gt;&lt;div&gt;formations&lt;/div&gt;" style="shape=parallelogram;perimeter=parallelogramPerimeter;whiteSpace=wrap;html=1;fixedSize=1;" parent="1" vertex="1">
          <mxGeometry x="660" y="870" width="120" height="60" as="geometry" />
        </mxCell>
        <mxCell id="3_qst0NbUyWHlaPV9hMc-74" style="edgeStyle=orthogonalEdgeStyle;rounded=0;orthogonalLoop=1;jettySize=auto;html=1;exitX=0;exitY=1;exitDx=0;exitDy=0;entryX=0.75;entryY=0;entryDx=0;entryDy=0;" parent="1" source="3_qst0NbUyWHlaPV9hMc-72" target="3_qst0NbUyWHlaPV9hMc-58" edge="1">
          <mxGeometry relative="1" as="geometry" />
        </mxCell>
        <mxCell id="3_qst0NbUyWHlaPV9hMc-75" style="edgeStyle=orthogonalEdgeStyle;rounded=0;orthogonalLoop=1;jettySize=auto;html=1;exitX=1;exitY=1;exitDx=0;exitDy=0;entryX=0.5;entryY=0;entryDx=0;entryDy=0;" parent="1" source="3_qst0NbUyWHlaPV9hMc-72" target="3_qst0NbUyWHlaPV9hMc-57" edge="1">
          <mxGeometry relative="1" as="geometry" />
        </mxCell>
        <mxCell id="3_qst0NbUyWHlaPV9hMc-72" value="&lt;div&gt;nb de salarié&amp;nbsp;&lt;/div&gt;&lt;div&gt;abscent&lt;/div&gt;" style="rhombus;whiteSpace=wrap;html=1;" parent="1" vertex="1">
          <mxGeometry x="560" y="960" width="130" height="120" as="geometry" />
        </mxCell>
        <mxCell id="3_qst0NbUyWHlaPV9hMc-76" value="non" style="text;html=1;align=center;verticalAlign=middle;resizable=0;points=[];autosize=1;strokeColor=none;fillColor=none;" parent="1" vertex="1">
          <mxGeometry x="660" y="1050" width="40" height="30" as="geometry" />
        </mxCell>
        <mxCell id="3_qst0NbUyWHlaPV9hMc-77" value="oui" style="text;html=1;align=center;verticalAlign=middle;resizable=0;points=[];autosize=1;strokeColor=none;fillColor=none;" parent="1" vertex="1">
          <mxGeometry x="550" y="1048" width="40" height="30" as="geometry" />
        </mxCell>
        <mxCell id="3_qst0NbUyWHlaPV9hMc-78" value="Mise en attente" style="shape=process;whiteSpace=wrap;html=1;backgroundOutline=1;" parent="1" vertex="1">
          <mxGeometry x="320" y="1310" width="120" height="60" as="geometry" />
        </mxCell>
        <mxCell id="3_qst0NbUyWHlaPV9hMc-79" value="Liste" style="shape=parallelogram;perimeter=parallelogramPerimeter;whiteSpace=wrap;html=1;fixedSize=1;" parent="1" vertex="1">
          <mxGeometry x="360" y="1400" width="120" height="60" as="geometry" />
        </mxCell>
        <mxCell id="3_qst0NbUyWHlaPV9hMc-88" style="edgeStyle=orthogonalEdgeStyle;rounded=0;orthogonalLoop=1;jettySize=auto;html=1;exitX=0;exitY=1;exitDx=0;exitDy=0;" parent="1" source="3_qst0NbUyWHlaPV9hMc-80" target="3_qst0NbUyWHlaPV9hMc-81" edge="1">
          <mxGeometry relative="1" as="geometry" />
        </mxCell>
        <mxCell id="3_qst0NbUyWHlaPV9hMc-80" value="Maj dossier" style="rounded=0;whiteSpace=wrap;html=1;" parent="1" vertex="1">
          <mxGeometry x="630" y="1410" width="120" height="60" as="geometry" />
        </mxCell>
        <mxCell id="3_qst0NbUyWHlaPV9hMc-89" style="edgeStyle=orthogonalEdgeStyle;rounded=0;orthogonalLoop=1;jettySize=auto;html=1;exitX=0.5;exitY=1;exitDx=0;exitDy=0;entryX=0.5;entryY=0;entryDx=0;entryDy=0;" parent="1" source="3_qst0NbUyWHlaPV9hMc-81" target="3_qst0NbUyWHlaPV9hMc-83" edge="1">
          <mxGeometry relative="1" as="geometry" />
        </mxCell>
        <mxCell id="3_qst0NbUyWHlaPV9hMc-81" value="&lt;div&gt;Dossier&lt;/div&gt;" style="rounded=0;whiteSpace=wrap;html=1;" parent="1" vertex="1">
          <mxGeometry x="440" y="1580" width="120" height="60" as="geometry" />
        </mxCell>
        <mxCell id="3_qst0NbUyWHlaPV9hMc-83" value="Fin" style="ellipse;whiteSpace=wrap;html=1;" parent="1" vertex="1">
          <mxGeometry x="440" y="1680" width="120" height="80" as="geometry" />
        </mxCell>
        <mxCell id="3_qst0NbUyWHlaPV9hMc-84" style="edgeStyle=orthogonalEdgeStyle;rounded=0;orthogonalLoop=1;jettySize=auto;html=1;exitX=0.5;exitY=1;exitDx=0;exitDy=0;entryX=0.692;entryY=-0.039;entryDx=0;entryDy=0;entryPerimeter=0;" parent="1" source="3_qst0NbUyWHlaPV9hMc-58" target="3_qst0NbUyWHlaPV9hMc-78" edge="1">
          <mxGeometry relative="1" as="geometry" />
        </mxCell>
        <mxCell id="3_qst0NbUyWHlaPV9hMc-85" style="edgeStyle=orthogonalEdgeStyle;rounded=0;orthogonalLoop=1;jettySize=auto;html=1;exitX=0.5;exitY=1;exitDx=0;exitDy=0;entryX=0.178;entryY=-0.039;entryDx=0;entryDy=0;entryPerimeter=0;" parent="1" source="3_qst0NbUyWHlaPV9hMc-78" target="3_qst0NbUyWHlaPV9hMc-79" edge="1">
          <mxGeometry relative="1" as="geometry" />
        </mxCell>
        <mxCell id="3_qst0NbUyWHlaPV9hMc-86" style="edgeStyle=orthogonalEdgeStyle;rounded=0;orthogonalLoop=1;jettySize=auto;html=1;exitX=1;exitY=0.5;exitDx=0;exitDy=0;entryX=-0.01;entryY=0.614;entryDx=0;entryDy=0;entryPerimeter=0;" parent="1" source="3_qst0NbUyWHlaPV9hMc-79" target="3_qst0NbUyWHlaPV9hMc-80" edge="1">
          <mxGeometry relative="1" as="geometry" />
        </mxCell>
        <mxCell id="3_qst0NbUyWHlaPV9hMc-87" style="edgeStyle=orthogonalEdgeStyle;rounded=0;orthogonalLoop=1;jettySize=auto;html=1;exitX=0.5;exitY=1;exitDx=0;exitDy=0;entryX=0.428;entryY=-0.039;entryDx=0;entryDy=0;entryPerimeter=0;" parent="1" source="3_qst0NbUyWHlaPV9hMc-57" target="3_qst0NbUyWHlaPV9hMc-80" edge="1">
          <mxGeometry relative="1" as="geometry" />
        </mxCell>
        <mxCell id="oglI9BCuFXkfBV5GbW_k-7" style="edgeStyle=orthogonalEdgeStyle;rounded=0;orthogonalLoop=1;jettySize=auto;html=1;entryX=0.5;entryY=0;entryDx=0;entryDy=0;" edge="1" parent="1" source="oglI9BCuFXkfBV5GbW_k-28">
          <mxGeometry relative="1" as="geometry">
            <mxPoint x="-413.5" y="80" as="sourcePoint" />
            <mxPoint x="-413.5" y="160" as="targetPoint" />
          </mxGeometry>
        </mxCell>
        <mxCell id="oglI9BCuFXkfBV5GbW_k-6" style="rounded=0;orthogonalLoop=1;jettySize=auto;html=1;entryX=0.25;entryY=0;entryDx=0;entryDy=0;" edge="1" parent="1" source="oglI9BCuFXkfBV5GbW_k-3" target="oglI9BCuFXkfBV5GbW_k-26">
          <mxGeometry relative="1" as="geometry">
            <mxPoint x="-470" y="220" as="targetPoint" />
          </mxGeometry>
        </mxCell>
        <mxCell id="oglI9BCuFXkfBV5GbW_k-3" value="Demande fourniture " style="shape=parallelogram;perimeter=parallelogramPerimeter;whiteSpace=wrap;html=1;fixedSize=1;" vertex="1" parent="1">
          <mxGeometry x="-680" y="90" width="140" height="60" as="geometry" />
        </mxCell>
        <mxCell id="oglI9BCuFXkfBV5GbW_k-14" style="rounded=0;orthogonalLoop=1;jettySize=auto;html=1;entryX=0.5;entryY=0;entryDx=0;entryDy=0;" edge="1" parent="1" source="oglI9BCuFXkfBV5GbW_k-13" target="oglI9BCuFXkfBV5GbW_k-15">
          <mxGeometry relative="1" as="geometry">
            <mxPoint x="-354" y="355" as="targetPoint" />
          </mxGeometry>
        </mxCell>
        <mxCell id="oglI9BCuFXkfBV5GbW_k-13" value="Information des stocks" style="shape=parallelogram;perimeter=parallelogramPerimeter;whiteSpace=wrap;html=1;fixedSize=1;" vertex="1" parent="1">
          <mxGeometry x="-320" y="210" width="120" height="60" as="geometry" />
        </mxCell>
        <mxCell id="oglI9BCuFXkfBV5GbW_k-22" style="edgeStyle=orthogonalEdgeStyle;rounded=0;orthogonalLoop=1;jettySize=auto;html=1;exitX=0;exitY=0.5;exitDx=0;exitDy=0;entryX=0.5;entryY=0;entryDx=0;entryDy=0;" edge="1" parent="1" source="oglI9BCuFXkfBV5GbW_k-15" target="oglI9BCuFXkfBV5GbW_k-19">
          <mxGeometry relative="1" as="geometry" />
        </mxCell>
        <mxCell id="oglI9BCuFXkfBV5GbW_k-34" style="edgeStyle=elbowEdgeStyle;rounded=0;orthogonalLoop=1;jettySize=auto;elbow=vertical;html=1;exitX=1;exitY=0.5;exitDx=0;exitDy=0;entryX=0.5;entryY=0;entryDx=0;entryDy=0;" edge="1" parent="1" source="oglI9BCuFXkfBV5GbW_k-15" target="oglI9BCuFXkfBV5GbW_k-29">
          <mxGeometry relative="1" as="geometry">
            <mxPoint x="-330" y="330" as="sourcePoint" />
            <mxPoint x="-118.5" y="427.5" as="targetPoint" />
          </mxGeometry>
        </mxCell>
        <mxCell id="oglI9BCuFXkfBV5GbW_k-15" value="Stocks suffisants et informations vraies" style="rhombus;whiteSpace=wrap;html=1;" vertex="1" parent="1">
          <mxGeometry x="-496" y="270" width="166" height="150" as="geometry" />
        </mxCell>
        <mxCell id="oglI9BCuFXkfBV5GbW_k-18" style="rounded=0;orthogonalLoop=1;jettySize=auto;html=1;entryX=0.5;entryY=0;entryDx=0;entryDy=0;" edge="1" parent="1" source="oglI9BCuFXkfBV5GbW_k-17" target="oglI9BCuFXkfBV5GbW_k-15">
          <mxGeometry relative="1" as="geometry">
            <mxPoint x="-474" y="355" as="targetPoint" />
          </mxGeometry>
        </mxCell>
        <mxCell id="oglI9BCuFXkfBV5GbW_k-17" value="demande type" style="shape=parallelogram;perimeter=parallelogramPerimeter;whiteSpace=wrap;html=1;fixedSize=1;" vertex="1" parent="1">
          <mxGeometry x="-650" y="200" width="120" height="60" as="geometry" />
        </mxCell>
        <mxCell id="oglI9BCuFXkfBV5GbW_k-25" style="rounded=0;orthogonalLoop=1;jettySize=auto;html=1;" edge="1" parent="1" source="oglI9BCuFXkfBV5GbW_k-19" target="oglI9BCuFXkfBV5GbW_k-23">
          <mxGeometry relative="1" as="geometry" />
        </mxCell>
        <mxCell id="oglI9BCuFXkfBV5GbW_k-19" value="Validation de la demande" style="rounded=0;whiteSpace=wrap;html=1;" vertex="1" parent="1">
          <mxGeometry x="-670" y="650" width="120" height="60" as="geometry" />
        </mxCell>
        <mxCell id="oglI9BCuFXkfBV5GbW_k-21" value="oui" style="text;html=1;align=center;verticalAlign=middle;resizable=0;points=[];autosize=1;strokeColor=none;fillColor=none;" vertex="1" parent="1">
          <mxGeometry x="-650" y="498" width="40" height="30" as="geometry" />
        </mxCell>
        <mxCell id="oglI9BCuFXkfBV5GbW_k-23" value="Demande validée" style="shape=parallelogram;perimeter=parallelogramPerimeter;whiteSpace=wrap;html=1;fixedSize=1;" vertex="1" parent="1">
          <mxGeometry x="-790" y="770" width="170" height="60" as="geometry" />
        </mxCell>
        <mxCell id="oglI9BCuFXkfBV5GbW_k-27" style="edgeStyle=orthogonalEdgeStyle;rounded=0;orthogonalLoop=1;jettySize=auto;html=1;" edge="1" parent="1" source="oglI9BCuFXkfBV5GbW_k-26" target="oglI9BCuFXkfBV5GbW_k-15">
          <mxGeometry relative="1" as="geometry" />
        </mxCell>
        <mxCell id="oglI9BCuFXkfBV5GbW_k-26" value="demande de fourniture" style="rounded=0;whiteSpace=wrap;html=1;" vertex="1" parent="1">
          <mxGeometry x="-473" y="160" width="120" height="60" as="geometry" />
        </mxCell>
        <mxCell id="oglI9BCuFXkfBV5GbW_k-28" value="Processus de traitement des demandes de fournitures au sein de la société Yard" style="rounded=1;whiteSpace=wrap;html=1;" vertex="1" parent="1">
          <mxGeometry x="-544.5" y="30" width="263" height="40" as="geometry" />
        </mxCell>
        <mxCell id="oglI9BCuFXkfBV5GbW_k-38" style="edgeStyle=elbowEdgeStyle;rounded=0;orthogonalLoop=1;jettySize=auto;elbow=vertical;html=1;exitX=0.5;exitY=1;exitDx=0;exitDy=0;entryX=0.5;entryY=0;entryDx=0;entryDy=0;" edge="1" parent="1" source="oglI9BCuFXkfBV5GbW_k-29" target="oglI9BCuFXkfBV5GbW_k-37">
          <mxGeometry relative="1" as="geometry" />
        </mxCell>
        <mxCell id="oglI9BCuFXkfBV5GbW_k-29" value="Pas de stocks" style="rhombus;whiteSpace=wrap;html=1;" vertex="1" parent="1">
          <mxGeometry x="-310" y="530" width="120" height="120" as="geometry" />
        </mxCell>
        <mxCell id="oglI9BCuFXkfBV5GbW_k-32" value="non" style="text;html=1;align=center;verticalAlign=middle;resizable=0;points=[];autosize=1;strokeColor=none;fillColor=none;" vertex="1" parent="1">
          <mxGeometry x="-330" y="380" width="40" height="30" as="geometry" />
        </mxCell>
        <mxCell id="oglI9BCuFXkfBV5GbW_k-36" style="edgeStyle=elbowEdgeStyle;rounded=0;orthogonalLoop=1;jettySize=auto;elbow=vertical;html=1;entryX=0.836;entryY=0.292;entryDx=0;entryDy=0;exitX=0;exitY=0.75;exitDx=0;exitDy=0;entryPerimeter=0;" edge="1" parent="1" source="oglI9BCuFXkfBV5GbW_k-35" target="oglI9BCuFXkfBV5GbW_k-37">
          <mxGeometry relative="1" as="geometry" />
        </mxCell>
        <mxCell id="oglI9BCuFXkfBV5GbW_k-35" value="Stocks disponibles" style="shape=parallelogram;perimeter=parallelogramPerimeter;whiteSpace=wrap;html=1;fixedSize=1;" vertex="1" parent="1">
          <mxGeometry x="-130" y="520" width="120" height="60" as="geometry" />
        </mxCell>
        <mxCell id="oglI9BCuFXkfBV5GbW_k-39" style="edgeStyle=elbowEdgeStyle;rounded=0;orthogonalLoop=1;jettySize=auto;elbow=vertical;html=1;exitX=1;exitY=0.5;exitDx=0;exitDy=0;" edge="1" parent="1" source="oglI9BCuFXkfBV5GbW_k-37">
          <mxGeometry relative="1" as="geometry">
            <mxPoint x="-130" y="820" as="targetPoint" />
          </mxGeometry>
        </mxCell>
        <mxCell id="oglI9BCuFXkfBV5GbW_k-41" style="edgeStyle=elbowEdgeStyle;rounded=0;orthogonalLoop=1;jettySize=auto;elbow=vertical;html=1;exitX=0;exitY=0.5;exitDx=0;exitDy=0;entryX=0.808;entryY=-0.05;entryDx=0;entryDy=0;entryPerimeter=0;" edge="1" parent="1" source="oglI9BCuFXkfBV5GbW_k-37" target="oglI9BCuFXkfBV5GbW_k-45">
          <mxGeometry relative="1" as="geometry">
            <mxPoint x="-350" y="830" as="targetPoint" />
          </mxGeometry>
        </mxCell>
        <mxCell id="oglI9BCuFXkfBV5GbW_k-37" value="Stocks fournisseurs ?" style="rhombus;whiteSpace=wrap;html=1;" vertex="1" parent="1">
          <mxGeometry x="-320" y="690" width="140" height="130" as="geometry" />
        </mxCell>
        <mxCell id="oglI9BCuFXkfBV5GbW_k-40" value="oui" style="text;html=1;align=center;verticalAlign=middle;resizable=0;points=[];autosize=1;strokeColor=none;fillColor=none;" vertex="1" parent="1">
          <mxGeometry x="-170" y="748" width="40" height="30" as="geometry" />
        </mxCell>
        <mxCell id="oglI9BCuFXkfBV5GbW_k-42" value="non" style="text;html=1;align=center;verticalAlign=middle;resizable=0;points=[];autosize=1;strokeColor=none;fillColor=none;" vertex="1" parent="1">
          <mxGeometry x="-370" y="758" width="40" height="30" as="geometry" />
        </mxCell>
        <mxCell id="oglI9BCuFXkfBV5GbW_k-45" value="Annulation de la demande" style="shape=parallelogram;perimeter=parallelogramPerimeter;whiteSpace=wrap;html=1;fixedSize=1;" vertex="1" parent="1">
          <mxGeometry x="-450" y="840" width="120" height="60" as="geometry" />
        </mxCell>
        <mxCell id="oglI9BCuFXkfBV5GbW_k-46" value="Restockage" style="rounded=0;whiteSpace=wrap;html=1;" vertex="1" parent="1">
          <mxGeometry x="-190" y="820" width="120" height="60" as="geometry" />
        </mxCell>
        <mxCell id="oglI9BCuFXkfBV5GbW_k-47" value="&lt;div&gt;Acteurs : &lt;br&gt;&lt;/div&gt;&lt;div&gt;Salariés&lt;/div&gt;&lt;div&gt;Chef de service&lt;/div&gt;&lt;div&gt;Responsable de fourniture&lt;/div&gt;&lt;div&gt;Service fourniture&lt;/div&gt;&lt;div&gt;Fournisseurs&lt;/div&gt;&lt;div&gt;Service comptable&lt;br&gt;&lt;/div&gt;" style="text;html=1;align=center;verticalAlign=middle;whiteSpace=wrap;rounded=0;" vertex="1" parent="1">
          <mxGeometry x="-713.5" y="880" width="167" height="120" as="geometry" />
        </mxCell>
        <mxCell id="oglI9BCuFXkfBV5GbW_k-53" value="Actor" style="shape=umlActor;verticalLabelPosition=bottom;verticalAlign=top;html=1;" vertex="1" parent="1">
          <mxGeometry x="-1630" y="210" width="50" height="100" as="geometry" />
        </mxCell>
        <mxCell id="oglI9BCuFXkfBV5GbW_k-54" value="Use Case" style="ellipse;whiteSpace=wrap;html=1;" vertex="1" parent="1">
          <mxGeometry x="-1420" y="170" width="140" height="70" as="geometry" />
        </mxCell>
      </root>
    </mxGraphModel>
  </diagram>
</mxfile>
